<svg width="158" height="42" viewBox="0 0 158 42" fill="none" xmlns="http://www.w3.org/2000/svg">
<path d="M27.9436 20.3732V14.8547C27.9436 8.03554 22.4156 2.50754 15.5964 2.50754V2.50754C8.77728 2.50754 3.24928 8.03555 3.24928 14.8547V32.5971" stroke="#6C5DD3" stroke-width="5.01493" stroke-linecap="round"/>
<path d="M15.5964 21.9403L15.5964 27.1454C15.5964 33.9645 21.1244 39.4925 27.9435 39.4925V39.4925C34.7626 39.4925 40.2906 33.9645 40.2906 27.1453L40.2906 9.40294" stroke="#6C5DD3" stroke-width="5.01493" stroke-linecap="round"/>
<path d="M2.59976 21.3134H40.9409" stroke="#6C5DD3" stroke-width="5.01493"/>
<rect x="2.50746" y="2.50746" width="38.525" height="36.9851" rx="10.0299" stroke="#6C5DD3" stroke-width="5.01493"/>
<path d="M65.098 10.6719V32H61.0843V10.6719H65.098ZM71.7191 10.6719V13.8506H54.5364V10.6719H71.7191ZM83.8685 28.2354V16.1504H87.765V32H84.1029L83.8685 28.2354ZM84.3665 24.9541L85.5677 24.9248C85.5677 25.9893 85.4505 26.9707 85.2161 27.8691C84.9818 28.7676 84.6155 29.5488 84.1175 30.2129C83.6292 30.8672 83.0091 31.3799 82.2571 31.751C81.5052 32.1123 80.6165 32.293 79.5911 32.293C78.8099 32.293 78.097 32.1855 77.4525 31.9707C76.8079 31.7461 76.2513 31.3994 75.7825 30.9307C75.3236 30.4521 74.9671 29.8418 74.7132 29.0996C74.4593 28.3477 74.3323 27.4443 74.3323 26.3896V16.1504H78.1995V26.4189C78.1995 26.9463 78.2581 27.3857 78.3753 27.7373C78.5023 28.0889 78.6732 28.377 78.888 28.6016C79.1126 28.8164 79.3714 28.9727 79.6644 29.0703C79.9671 29.1582 80.2894 29.2021 80.6312 29.2021C81.5687 29.2021 82.306 29.0166 82.8431 28.6455C83.39 28.2646 83.7806 27.7568 84.015 27.1221C84.2493 26.4775 84.3665 25.7549 84.3665 24.9541ZM101.409 27.6641C101.409 27.332 101.321 27.0342 101.145 26.7705C100.969 26.5068 100.637 26.2676 100.149 26.0527C99.6702 25.8281 98.9671 25.6182 98.0394 25.4229C97.2191 25.2471 96.4622 25.0273 95.7689 24.7637C95.0755 24.5 94.4798 24.1826 93.9818 23.8115C93.4837 23.4307 93.0931 22.9863 92.8099 22.4785C92.5364 21.9609 92.3997 21.3652 92.3997 20.6914C92.3997 20.0371 92.5413 19.4219 92.8245 18.8457C93.1077 18.2598 93.5179 17.7471 94.055 17.3076C94.5921 16.8584 95.2464 16.5068 96.0179 16.2529C96.7894 15.9893 97.6585 15.8574 98.6253 15.8574C99.973 15.8574 101.13 16.0771 102.097 16.5166C103.074 16.9561 103.821 17.5615 104.338 18.333C104.856 19.0947 105.115 19.9541 105.115 20.9111H101.247C101.247 20.4912 101.15 20.1104 100.954 19.7686C100.769 19.4268 100.481 19.1533 100.09 18.9482C99.6995 18.7334 99.2064 18.626 98.6107 18.626C98.0736 18.626 97.6195 18.7139 97.2484 18.8896C96.887 19.0654 96.6136 19.2949 96.428 19.5781C96.2425 19.8613 96.1497 20.1738 96.1497 20.5156C96.1497 20.7695 96.1986 20.999 96.2962 21.2041C96.4036 21.3994 96.5745 21.5801 96.8089 21.7461C97.0433 21.9121 97.3607 22.0635 97.7611 22.2002C98.1712 22.3369 98.6741 22.4688 99.2698 22.5957C100.451 22.8301 101.482 23.1426 102.361 23.5332C103.249 23.9141 103.943 24.4219 104.441 25.0566C104.939 25.6914 105.188 26.502 105.188 27.4883C105.188 28.1914 105.036 28.8359 104.734 29.4219C104.431 29.998 103.992 30.501 103.415 30.9307C102.839 31.3604 102.151 31.6973 101.35 31.9414C100.549 32.1758 99.6458 32.293 98.64 32.293C97.1849 32.293 95.9544 32.0342 94.9486 31.5166C93.9427 30.9893 93.181 30.3252 92.6634 29.5244C92.1458 28.7139 91.887 27.874 91.887 27.0049H95.5931C95.6224 27.6201 95.7884 28.1133 96.0911 28.4844C96.3939 28.8555 96.7747 29.124 97.2337 29.29C97.7025 29.4463 98.1956 29.5244 98.7132 29.5244C99.2991 29.5244 99.7923 29.4463 100.193 29.29C100.593 29.124 100.896 28.9043 101.101 28.6309C101.306 28.3477 101.409 28.0254 101.409 27.6641ZM116.136 29.2461C116.683 29.2461 117.171 29.1387 117.601 28.9238C118.031 28.709 118.372 28.4062 118.626 28.0156C118.89 27.625 119.032 27.1709 119.051 26.6533H122.699C122.679 27.7275 122.376 28.6895 121.79 29.5391C121.204 30.3887 120.423 31.0625 119.447 31.5605C118.48 32.0488 117.396 32.293 116.195 32.293C114.974 32.293 113.909 32.0879 113.001 31.6777C112.093 31.2676 111.336 30.6963 110.731 29.9639C110.135 29.2314 109.686 28.3818 109.383 27.415C109.09 26.4482 108.944 25.4131 108.944 24.3096V23.8408C108.944 22.7373 109.09 21.7021 109.383 20.7354C109.686 19.7686 110.135 18.9189 110.731 18.1865C111.336 17.4541 112.093 16.8828 113.001 16.4727C113.909 16.0625 114.969 15.8574 116.18 15.8574C117.459 15.8574 118.582 16.1064 119.549 16.6045C120.526 17.1025 121.287 17.8057 121.834 18.7139C122.391 19.6221 122.679 20.6914 122.699 21.9219H119.051C119.032 21.3555 118.905 20.8477 118.67 20.3984C118.436 19.9492 118.104 19.5879 117.674 19.3145C117.244 19.041 116.722 18.9043 116.107 18.9043C115.452 18.9043 114.906 19.041 114.466 19.3145C114.036 19.5879 113.7 19.9639 113.455 20.4424C113.221 20.9111 113.055 21.4385 112.957 22.0244C112.869 22.6006 112.826 23.2061 112.826 23.8408V24.3096C112.826 24.9541 112.869 25.5693 112.957 26.1553C113.055 26.7412 113.221 27.2686 113.455 27.7373C113.7 28.1963 114.036 28.5625 114.466 28.8359C114.906 29.1094 115.462 29.2461 116.136 29.2461ZM126.088 24.2363V23.9287C126.088 22.7666 126.254 21.6973 126.586 20.7207C126.918 19.7344 127.402 18.8799 128.036 18.1572C128.671 17.4346 129.448 16.873 130.366 16.4727C131.284 16.0625 132.328 15.8574 133.5 15.8574C134.692 15.8574 135.746 16.0625 136.664 16.4727C137.592 16.873 138.373 17.4346 139.008 18.1572C139.643 18.8799 140.126 19.7344 140.458 20.7207C140.79 21.6973 140.956 22.7666 140.956 23.9287V24.2363C140.956 25.3887 140.79 26.458 140.458 27.4443C140.126 28.4209 139.643 29.2754 139.008 30.0078C138.373 30.7305 137.597 31.292 136.679 31.6924C135.761 32.0928 134.711 32.293 133.53 32.293C132.358 32.293 131.308 32.0928 130.38 31.6924C129.452 31.292 128.671 30.7305 128.036 30.0078C127.402 29.2754 126.918 28.4209 126.586 27.4443C126.254 26.458 126.088 25.3887 126.088 24.2363ZM129.955 23.9287V24.2363C129.955 24.9297 130.024 25.5791 130.16 26.1846C130.297 26.79 130.507 27.3223 130.79 27.7812C131.074 28.2402 131.44 28.6016 131.889 28.8652C132.348 29.1191 132.895 29.2461 133.53 29.2461C134.155 29.2461 134.692 29.1191 135.141 28.8652C135.59 28.6016 135.956 28.2402 136.24 27.7812C136.533 27.3223 136.747 26.79 136.884 26.1846C137.021 25.5791 137.089 24.9297 137.089 24.2363V23.9287C137.089 23.2451 137.021 22.6055 136.884 22.0098C136.747 21.4043 136.533 20.8721 136.24 20.4131C135.956 19.9443 135.585 19.5781 135.126 19.3145C134.677 19.041 134.135 18.9043 133.5 18.9043C132.875 18.9043 132.338 19.041 131.889 19.3145C131.44 19.5781 131.074 19.9443 130.79 20.4131C130.507 20.8721 130.297 21.4043 130.16 22.0098C130.024 22.6055 129.955 23.2451 129.955 23.9287ZM152.769 16.1504V18.9336H143.687V16.1504H152.769ZM146.118 12.2539H150V27.4297C150 27.8984 150.064 28.2598 150.191 28.5137C150.318 28.7676 150.508 28.9385 150.762 29.0264C151.016 29.1143 151.319 29.1582 151.67 29.1582C151.924 29.1582 152.159 29.1436 152.373 29.1143C152.588 29.085 152.769 29.0557 152.915 29.0264L152.93 31.9268C152.608 32.0342 152.242 32.1221 151.831 32.1904C151.431 32.2588 150.977 32.293 150.469 32.293C149.6 32.293 148.838 32.1465 148.184 31.8535C147.53 31.5508 147.022 31.0674 146.66 30.4033C146.299 29.7295 146.118 28.8408 146.118 27.7373V12.2539Z" fill="black"/>
</svg>
